<svg width="140" height="56" viewBox="0 0 140 56" fill="none" xmlns="http://www.w3.org/2000/svg">
<g clip-path="url(#clip0_0_368)">
<rect width="140" height="56" rx="28" fill="white"/>
<path d="M42.2825 31.255C42.2825 31.555 42.1825 31.88 41.9825 32.23C41.7875 32.58 41.5025 32.9125 41.1275 33.2275C40.7575 33.5375 40.2975 33.7925 39.7475 33.9925C39.2025 34.1925 38.5775 34.2925 37.8725 34.2925C36.7875 34.2925 35.845 34.0575 35.045 33.5875C34.245 33.1175 33.625 32.4675 33.185 31.6375C32.745 30.8025 32.525 29.84 32.525 28.75C32.525 27.965 32.655 27.2375 32.915 26.5675C33.18 25.8925 33.5475 25.305 34.0175 24.805C34.4875 24.305 35.0325 23.915 35.6525 23.635C36.2775 23.355 36.95 23.215 37.67 23.215C38.16 23.215 38.55 23.2575 38.84 23.3425C39.135 23.4275 39.37 23.5125 39.545 23.5975C39.72 23.6825 39.875 23.725 40.01 23.725C40.13 23.725 40.2325 23.6875 40.3175 23.6125C40.4025 23.5375 40.4875 23.4625 40.5725 23.3875C40.6625 23.3125 40.7625 23.275 40.8725 23.275C41.0575 23.275 41.185 23.325 41.255 23.425C41.33 23.52 41.4 23.6825 41.465 23.9125L42.1925 26.3425C42.2475 26.5375 42.22 26.7025 42.11 26.8375C42.005 26.9725 41.8525 27.0575 41.6525 27.0925C41.4925 27.1175 41.34 27.095 41.195 27.025C41.05 26.955 40.93 26.82 40.835 26.62C40.575 26.07 40.3 25.64 40.01 25.33C39.725 25.015 39.4175 24.795 39.0875 24.67C38.7575 24.54 38.405 24.475 38.03 24.475C37.625 24.475 37.2625 24.57 36.9425 24.76C36.6225 24.95 36.35 25.22 36.125 25.57C35.9 25.92 35.73 26.3325 35.615 26.8075C35.5 27.2825 35.4425 27.8075 35.4425 28.3825C35.4425 29.2475 35.5825 29.9825 35.8625 30.5875C36.1425 31.1925 36.5275 31.655 37.0175 31.975C37.5075 32.29 38.07 32.4475 38.705 32.4475C39.23 32.4475 39.7025 32.335 40.1225 32.11C40.5475 31.885 40.9325 31.56 41.2775 31.135C41.4375 30.96 41.575 30.85 41.69 30.805C41.805 30.755 41.91 30.7475 42.005 30.7825C42.1 30.8125 42.17 30.87 42.215 30.955C42.26 31.035 42.2825 31.135 42.2825 31.255ZM48.6448 23.215C49.4798 23.215 50.2348 23.3525 50.9098 23.6275C51.5848 23.9025 52.1623 24.285 52.6423 24.775C53.1223 25.265 53.4923 25.845 53.7523 26.515C54.0123 27.18 54.1423 27.9075 54.1423 28.6975C54.1423 29.5125 54.0123 30.2625 53.7523 30.9475C53.4973 31.6275 53.1298 32.2175 52.6498 32.7175C52.1748 33.2175 51.5998 33.605 50.9248 33.88C50.2498 34.155 49.4923 34.2925 48.6523 34.2925C47.8073 34.2925 47.0473 34.1575 46.3723 33.8875C45.6973 33.6125 45.1198 33.225 44.6398 32.725C44.1648 32.225 43.7998 31.6325 43.5448 30.9475C43.2948 30.2625 43.1698 29.505 43.1698 28.675C43.1698 27.915 43.2948 27.2075 43.5448 26.5525C43.7948 25.8925 44.1548 25.3125 44.6248 24.8125C45.0998 24.3125 45.6748 23.9225 46.3498 23.6425C47.0298 23.3575 47.7948 23.215 48.6448 23.215ZM51.1573 30.3775C51.1573 29.7725 51.0998 29.185 50.9848 28.615C50.8698 28.04 50.7098 27.5075 50.5048 27.0175C50.2998 26.5225 50.0623 26.09 49.7923 25.72C49.5223 25.345 49.2298 25.0525 48.9148 24.8425C48.6048 24.6325 48.2898 24.5275 47.9698 24.5275C47.5898 24.5275 47.2673 24.63 47.0023 24.835C46.7373 25.04 46.5348 25.3375 46.3948 25.7275C46.2548 26.1125 46.1848 26.58 46.1848 27.13C46.1848 27.75 46.2448 28.3475 46.3648 28.9225C46.4848 29.4975 46.6498 30.0325 46.8598 30.5275C47.0698 31.0175 47.3098 31.445 47.5798 31.81C47.8498 32.175 48.1373 32.46 48.4423 32.665C48.7473 32.87 49.0548 32.9725 49.3648 32.9725C49.7248 32.9725 50.0398 32.8775 50.3098 32.6875C50.5798 32.4975 50.7873 32.21 50.9323 31.825C51.0823 31.44 51.1573 30.9575 51.1573 30.3775ZM58.9215 33.355C58.9215 33.555 58.8615 33.7125 58.7415 33.8275C58.6215 33.9425 58.434 34 58.179 34H55.974C55.724 34 55.539 33.9425 55.419 33.8275C55.299 33.7125 55.239 33.555 55.239 33.355C55.239 33.04 55.409 32.7975 55.749 32.6275L55.959 32.5375C56.109 32.4725 56.219 32.3925 56.289 32.2975C56.359 32.2025 56.394 32.05 56.394 31.84V26.4625C56.394 26.1875 56.3615 25.9825 56.2965 25.8475C56.2365 25.7075 56.1415 25.5625 56.0115 25.4125L55.4565 24.7825C55.3315 24.6425 55.2315 24.525 55.1565 24.43C55.0865 24.33 55.0515 24.2075 55.0515 24.0625C55.0515 23.8925 55.1115 23.7575 55.2315 23.6575C55.3515 23.5525 55.5065 23.5 55.6965 23.5H57.5565C57.7665 23.5 57.944 23.5225 58.089 23.5675C58.234 23.6125 58.394 23.7475 58.569 23.9725L63.8115 30.685L63.4665 32.035V25.66C63.4665 25.45 63.4315 25.2975 63.3615 25.2025C63.2915 25.1075 63.179 25.0275 63.024 24.9625L62.814 24.8725C62.474 24.7025 62.304 24.46 62.304 24.145C62.304 23.945 62.364 23.7875 62.484 23.6725C62.604 23.5575 62.789 23.5 63.039 23.5H65.244C65.499 23.5 65.6865 23.5575 65.8065 23.6725C65.9265 23.7875 65.9865 23.945 65.9865 24.145C65.9865 24.46 65.814 24.7025 65.469 24.8725L65.259 24.9625C65.104 25.0325 64.9915 25.1125 64.9215 25.2025C64.8565 25.2925 64.824 25.445 64.824 25.66V31.105C64.824 31.34 64.8465 31.5475 64.8915 31.7275C64.9365 31.9075 65.004 32.075 65.094 32.23L65.364 32.665C65.469 32.835 65.5415 32.965 65.5815 33.055C65.6265 33.145 65.649 33.25 65.649 33.37C65.649 33.56 65.589 33.7125 65.469 33.8275C65.349 33.9425 65.1915 34 64.9965 34H62.9265C62.5515 34 62.364 33.83 62.364 33.49C62.364 33.365 62.3265 33.2525 62.2515 33.1525C62.1815 33.0475 62.0565 32.88 61.8765 32.65L57.0765 26.4925L57.759 25.6375V31.84C57.759 32.055 57.7915 32.2075 57.8565 32.2975C57.9215 32.3825 58.034 32.4625 58.194 32.5375L58.404 32.6275C58.749 32.7975 58.9215 33.04 58.9215 33.355ZM69.6661 23.5H73.9861C74.2161 23.5 74.4111 23.475 74.5711 23.425C74.7361 23.375 74.8861 23.325 75.0211 23.275C75.1611 23.225 75.3061 23.2 75.4561 23.2C75.7361 23.2 75.9461 23.275 76.0861 23.425C76.2311 23.57 76.3436 23.805 76.4236 24.13L76.8961 26.0425C76.9561 26.2825 76.9386 26.485 76.8436 26.65C76.7536 26.81 76.6086 26.9075 76.4086 26.9425C76.2286 26.9825 76.0686 26.9675 75.9286 26.8975C75.7936 26.8225 75.6761 26.6775 75.5761 26.4625C75.3861 26.0375 75.2136 25.715 75.0586 25.495C74.9036 25.27 74.7386 25.1175 74.5636 25.0375C74.3936 24.9575 74.1861 24.9175 73.9411 24.9175H73.2811V31.8925C73.2811 32.0875 73.3211 32.2325 73.4011 32.3275C73.4811 32.4175 73.5861 32.4875 73.7161 32.5375L74.0461 32.6575C74.3461 32.8025 74.4961 33.035 74.4961 33.355C74.4961 33.785 74.2486 34 73.7536 34H69.8911C69.6411 34 69.4561 33.9425 69.3361 33.8275C69.2161 33.7125 69.1561 33.5525 69.1561 33.3475C69.1561 33.0325 69.3061 32.8025 69.6061 32.6575L69.9361 32.5375C70.0661 32.4875 70.1711 32.4175 70.2511 32.3275C70.3311 32.2325 70.3711 32.0875 70.3711 31.8925V24.9175H69.7111C69.4661 24.9175 69.2561 24.9575 69.0811 25.0375C68.9111 25.1175 68.7486 25.27 68.5936 25.495C68.4386 25.715 68.2661 26.0375 68.0761 26.4625C67.9811 26.6775 67.8636 26.8225 67.7236 26.8975C67.5886 26.9675 67.4261 26.9825 67.2361 26.9425C67.0411 26.9075 66.8986 26.81 66.8086 26.65C66.7186 26.485 66.7011 26.2825 66.7561 26.0425L67.2286 24.13C67.3136 23.805 67.4261 23.57 67.5661 23.425C67.7061 23.275 67.9136 23.2 68.1886 23.2C68.3436 23.2 68.4886 23.225 68.6236 23.275C68.7636 23.325 68.9136 23.375 69.0736 23.425C69.2386 23.475 69.4361 23.5 69.6661 23.5ZM79.3764 29.35H84.0414L84.0564 30.7H79.3464L79.3764 29.35ZM80.6064 33.355C80.6064 33.555 80.5464 33.7125 80.4264 33.8275C80.3064 33.9425 80.1189 34 79.8639 34H77.6889C77.4389 34 77.2514 33.9425 77.1264 33.8275C77.0064 33.7125 76.9464 33.555 76.9464 33.355C76.9464 33.215 76.9789 33.0975 77.0439 33.0025C77.1089 32.9075 77.2114 32.81 77.3514 32.71L77.5539 32.5975C77.6589 32.5325 77.7414 32.4525 77.8014 32.3575C77.8664 32.2625 77.9489 32.055 78.0489 31.735L80.0214 25.6075C80.1014 25.3725 80.1314 25.2025 80.1114 25.0975C80.0964 24.9925 79.9989 24.8975 79.8189 24.8125C79.6689 24.7425 79.5564 24.655 79.4814 24.55C79.4064 24.44 79.3689 24.305 79.3689 24.145C79.3689 23.945 79.4289 23.7875 79.5489 23.6725C79.6739 23.5575 79.8614 23.5 80.1114 23.5H84.6564C84.9064 23.5 85.0914 23.56 85.2114 23.68C85.3364 23.795 85.3989 23.95 85.3989 24.145C85.3989 24.315 85.3564 24.455 85.2714 24.565C85.1914 24.675 85.0714 24.7675 84.9114 24.8425C84.7964 24.8975 84.7339 24.9825 84.7239 25.0975C84.7139 25.2075 84.7389 25.36 84.7989 25.555L86.6889 31.3525C86.8139 31.7425 86.9214 32.03 87.0114 32.215C87.1014 32.395 87.2314 32.5275 87.4014 32.6125C87.6014 32.7225 87.7389 32.8325 87.8139 32.9425C87.8889 33.0475 87.9264 33.185 87.9264 33.355C87.9264 33.555 87.8664 33.7125 87.7464 33.8275C87.6264 33.9425 87.4389 34 87.1839 34H83.7489C83.4939 34 83.3064 33.9425 83.1864 33.8275C83.0664 33.7125 83.0064 33.555 83.0064 33.355C83.0064 33.195 83.0439 33.065 83.1189 32.965C83.1939 32.86 83.3064 32.7725 83.4564 32.7025L83.8014 32.59C83.9264 32.535 83.9764 32.4475 83.9514 32.3275C83.9314 32.2075 83.8814 32.0225 83.8014 31.7725L81.5739 24.67L81.7764 24.685L79.6014 31.465C79.5314 31.685 79.4739 31.8625 79.4289 31.9975C79.3839 32.1275 79.3864 32.2375 79.4364 32.3275C79.4864 32.4125 79.6114 32.505 79.8114 32.605L80.1564 32.725C80.2914 32.79 80.3989 32.8725 80.4789 32.9725C80.5639 33.0675 80.6064 33.195 80.6064 33.355ZM98.4509 31.255C98.4509 31.555 98.3509 31.88 98.1509 32.23C97.9559 32.58 97.6709 32.9125 97.2959 33.2275C96.9259 33.5375 96.4659 33.7925 95.9159 33.9925C95.3709 34.1925 94.7459 34.2925 94.0409 34.2925C92.9559 34.2925 92.0134 34.0575 91.2134 33.5875C90.4134 33.1175 89.7934 32.4675 89.3534 31.6375C88.9134 30.8025 88.6934 29.84 88.6934 28.75C88.6934 27.965 88.8234 27.2375 89.0834 26.5675C89.3484 25.8925 89.7159 25.305 90.1859 24.805C90.6559 24.305 91.2009 23.915 91.8209 23.635C92.4459 23.355 93.1184 23.215 93.8384 23.215C94.3284 23.215 94.7184 23.2575 95.0084 23.3425C95.3034 23.4275 95.5384 23.5125 95.7134 23.5975C95.8884 23.6825 96.0434 23.725 96.1784 23.725C96.2984 23.725 96.4009 23.6875 96.4859 23.6125C96.5709 23.5375 96.6559 23.4625 96.7409 23.3875C96.8309 23.3125 96.9309 23.275 97.0409 23.275C97.2259 23.275 97.3534 23.325 97.4234 23.425C97.4984 23.52 97.5684 23.6825 97.6334 23.9125L98.3609 26.3425C98.4159 26.5375 98.3884 26.7025 98.2784 26.8375C98.1734 26.9725 98.0209 27.0575 97.8209 27.0925C97.6609 27.1175 97.5084 27.095 97.3634 27.025C97.2184 26.955 97.0984 26.82 97.0034 26.62C96.7434 26.07 96.4684 25.64 96.1784 25.33C95.8934 25.015 95.5859 24.795 95.2559 24.67C94.9259 24.54 94.5734 24.475 94.1984 24.475C93.7934 24.475 93.4309 24.57 93.1109 24.76C92.7909 24.95 92.5184 25.22 92.2934 25.57C92.0684 25.92 91.8984 26.3325 91.7834 26.8075C91.6684 27.2825 91.6109 27.8075 91.6109 28.3825C91.6109 29.2475 91.7509 29.9825 92.0309 30.5875C92.3109 31.1925 92.6959 31.655 93.1859 31.975C93.6759 32.29 94.2384 32.4475 94.8734 32.4475C95.3984 32.4475 95.8709 32.335 96.2909 32.11C96.7159 31.885 97.1009 31.56 97.4459 31.135C97.6059 30.96 97.7434 30.85 97.8584 30.805C97.9734 30.755 98.0784 30.7475 98.1734 30.7825C98.2684 30.8125 98.3384 30.87 98.3834 30.955C98.4284 31.035 98.4509 31.135 98.4509 31.255ZM102.113 23.5H106.433C106.663 23.5 106.858 23.475 107.018 23.425C107.183 23.375 107.333 23.325 107.468 23.275C107.608 23.225 107.753 23.2 107.903 23.2C108.183 23.2 108.393 23.275 108.533 23.425C108.678 23.57 108.791 23.805 108.871 24.13L109.343 26.0425C109.403 26.2825 109.386 26.485 109.291 26.65C109.201 26.81 109.056 26.9075 108.856 26.9425C108.676 26.9825 108.516 26.9675 108.376 26.8975C108.241 26.8225 108.123 26.6775 108.023 26.4625C107.833 26.0375 107.661 25.715 107.506 25.495C107.351 25.27 107.186 25.1175 107.011 25.0375C106.841 24.9575 106.633 24.9175 106.388 24.9175H105.728V31.8925C105.728 32.0875 105.768 32.2325 105.848 32.3275C105.928 32.4175 106.033 32.4875 106.163 32.5375L106.493 32.6575C106.793 32.8025 106.943 33.035 106.943 33.355C106.943 33.785 106.696 34 106.201 34H102.338C102.088 34 101.903 33.9425 101.783 33.8275C101.663 33.7125 101.603 33.5525 101.603 33.3475C101.603 33.0325 101.753 32.8025 102.053 32.6575L102.383 32.5375C102.513 32.4875 102.618 32.4175 102.698 32.3275C102.778 32.2325 102.818 32.0875 102.818 31.8925V24.9175H102.158C101.913 24.9175 101.703 24.9575 101.528 25.0375C101.358 25.1175 101.196 25.27 101.041 25.495C100.886 25.715 100.713 26.0375 100.523 26.4625C100.428 26.6775 100.311 26.8225 100.171 26.8975C100.036 26.9675 99.8732 26.9825 99.6832 26.9425C99.4882 26.9075 99.3457 26.81 99.2557 26.65C99.1657 26.485 99.1482 26.2825 99.2032 26.0425L99.6757 24.13C99.7607 23.805 99.8732 23.57 100.013 23.425C100.153 23.275 100.361 23.2 100.636 23.2C100.791 23.2 100.936 23.225 101.071 23.275C101.211 23.325 101.361 23.375 101.521 23.425C101.686 23.475 101.883 23.5 102.113 23.5Z" fill="#24303E"/>
</g>
<defs>
<clipPath id="clip0_0_368">
<rect width="140" height="56" fill="white"/>
</clipPath>
</defs>
</svg>
